<svg width="16" height="16" viewBox="0 0 16 16" fill="none" xmlns="http://www.w3.org/2000/svg">
<path d="M6 10L6 11.6667C6 12.2897 6 12.6013 5.86603 12.8333C5.77826 12.9854 5.65202 13.1116 5.5 13.1994C5.26795 13.3333 4.95641 13.3333 4.33333 13.3333C3.71026 13.3333 3.39872 13.3333 3.16667 13.1994C3.01465 13.1116 2.88841 12.9854 2.80064 12.8333C2.66667 12.6013 2.66667 12.2897 2.66667 11.6667C2.66667 11.0436 2.66667 10.7321 2.80064 10.5C2.88841 10.348 3.01465 10.2217 3.16667 10.134C3.39872 10 3.71026 10 4.33333 10L6 10Z" fill="#2E2E2E" stroke="#2E2E2E" strokeWidth="2"/>
<path d="M10 6L10 4.33333C10 3.71026 10 3.39872 10.134 3.16667C10.2217 3.01465 10.348 2.88841 10.5 2.80064C10.7321 2.66667 11.0436 2.66667 11.6667 2.66667C12.2897 2.66667 12.6013 2.66667 12.8333 2.80064C12.9854 2.88841 13.1116 3.01465 13.1994 3.16667C13.3333 3.39872 13.3333 3.71026 13.3333 4.33333C13.3333 4.95641 13.3333 5.26795 13.1994 5.5C13.1116 5.65202 12.9854 5.77826 12.8333 5.86603C12.6013 6 12.2897 6 11.6667 6L10 6Z" fill="#2E2E2E" stroke="#2E2E2E" strokeWidth="2"/>
<path d="M10 6L6 10" stroke="#2E2E2E" stroke-width="2"/>
</svg>
