<svg width="16" height="16" viewBox="0 0 16 16" fill="none" xmlns="http://www.w3.org/2000/svg">
<path fillRule="evenodd" clipRule="evenodd" d="M4.85481 3.9022C4.98916 3.79911 5.12826 3.70287 5.27155 3.61376L6.16296 6.94053L2.83618 7.83194C2.84171 7.66329 2.85551 7.49471 2.87761 7.32681C2.96617 6.65412 3.18636 6.00546 3.52561 5.41786C3.86486 4.83026 4.31652 4.31524 4.85481 3.9022ZM8.12396 2.66797L9.19015 6.64704L9.2018 6.69041C9.2518 6.87612 9.32232 7.13807 9.35327 7.37824C9.39228 7.68095 9.40145 8.15973 9.11975 8.64764C8.83806 9.13555 8.41884 9.367 8.13718 9.48457C7.91372 9.57785 7.65162 9.64775 7.46579 9.69731L7.42238 9.7089L3.44454 10.7748C4.3811 12.309 6.07097 13.3332 8.00006 13.3332C10.9456 13.3332 13.3334 10.9454 13.3334 7.99989C13.3334 5.09579 11.0122 2.73381 8.12396 2.66797Z" fill="#2E2E2E"/>
<path d="M6.7921 3.493C6.54006 2.5524 6.41405 2.0821 5.94381 1.89777C5.47358 1.71343 5.13189 1.92851 4.44851 2.35867C4.27445 2.46823 4.10525 2.58598 3.94151 2.71163C3.24694 3.24459 2.66416 3.90913 2.22642 4.66732C1.78868 5.4255 1.50456 6.26249 1.39029 7.13048C1.36335 7.3351 1.34597 7.54051 1.33812 7.74603C1.30728 8.55294 1.29186 8.95639 1.68661 9.27145C2.08137 9.58652 2.55167 9.46051 3.49226 9.20847L6.06807 8.51829C6.97875 8.27427 7.43409 8.15226 7.6412 7.79354C7.84831 7.43482 7.7263 6.97948 7.48228 6.0688L6.7921 3.493Z" fill="#2E2E2E"/>
</svg>
