<svg width="16" height="16" viewBox="0 0 16 16" fill="none" xmlns="http://www.w3.org/2000/svg">
<path d="M7.99996 3.33398L7.46963 2.80365L7.99996 2.27332L8.53029 2.80365L7.99996 3.33398ZM8.74996 9.33398C8.74996 9.7482 8.41417 10.084 7.99996 10.084C7.58575 10.084 7.24996 9.7482 7.24996 9.33398L8.74996 9.33398ZM4.1363 6.13699L7.46963 2.80365L8.53029 3.86431L5.19696 7.19765L4.1363 6.13699ZM8.53029 2.80365L11.8636 6.13699L10.803 7.19765L7.46963 3.86431L8.53029 2.80365ZM8.74996 3.33398L8.74996 9.33398L7.24996 9.33398L7.24996 3.33398L8.74996 3.33398Z" fill="#2E2E2E"/>
<path d="M3.33337 10.666L3.33337 11.3327C3.33337 12.0691 3.93033 12.666 4.66671 12.666L11.3334 12.666C12.0698 12.666 12.6667 12.0691 12.6667 11.3327V10.666" stroke="#2E2E2E" stroke-width="1.5"/>
</svg>
