<svg width="32" height="32" viewBox="0 0 32 32" fill="none" xmlns="http://www.w3.org/2000/svg">
<path d="M14.7294 17.3632L13.4872 16.7852C12.2102 16.1911 11.5717 15.894 11.499 15.3511C11.4263 14.8083 11.9641 14.3537 13.0397 13.4444L18.0048 9.2475C18.6851 8.67253 19.0252 8.38505 19.1848 8.50701C19.3445 8.62897 19.1567 9.03274 18.781 9.84028L16.9123 13.8567C16.8129 14.0704 16.7632 14.1773 16.7987 14.2746C16.8342 14.3718 16.941 14.4216 17.1547 14.521L18.397 15.0989C19.674 15.6931 20.3125 15.9901 20.3852 16.533C20.4579 17.0759 19.9201 17.5305 18.8444 18.4397L13.8793 22.6367C13.1991 23.2116 12.859 23.4991 12.6993 23.3771C12.5396 23.2552 12.7275 22.8514 13.1032 22.0439L14.9719 18.0274C15.0713 17.8137 15.121 17.7069 15.0855 17.6096C15.05 17.5123 14.9432 17.4626 14.7294 17.3632Z" fill="#78340D"/>
</svg>
