<svg width="16" height="16" viewBox="0 0 16 16" fill="none" xmlns="http://www.w3.org/2000/svg">
<path d="M13.3334 13.334V14.084H14.0834V13.334H13.3334ZM10.5304 9.47032C10.2375 9.17743 9.7626 9.17743 9.46971 9.47032C9.17682 9.76321 9.17682 10.2381 9.46971 10.531L10.5304 9.47032ZM12.5834 9.33398V13.334H14.0834V9.33398H12.5834ZM13.3334 12.584H9.33337V14.084H13.3334V12.584ZM13.8637 12.8037L10.5304 9.47032L9.46971 10.531L12.803 13.8643L13.8637 12.8037Z" fill="#33363F"/>
<path d="M2.66663 13.334H1.91663V14.084H2.66663V13.334ZM6.53029 10.531C6.82318 10.2381 6.82318 9.76321 6.53029 9.47032C6.2374 9.17743 5.76252 9.17743 5.46963 9.47032L6.53029 10.531ZM1.91663 9.33398V13.334H3.41663V9.33398H1.91663ZM2.66663 14.084H6.66663V12.584H2.66663V14.084ZM3.19696 13.8643L6.53029 10.531L5.46963 9.47032L2.1363 12.8037L3.19696 13.8643Z" fill="#33363F"/>
<path d="M13.3334 2.66602H14.0834V1.91602H13.3334V2.66602ZM9.46971 5.46902C9.17682 5.76191 9.17682 6.23679 9.46971 6.52968C9.7626 6.82257 10.2375 6.82257 10.5304 6.52968L9.46971 5.46902ZM14.0834 6.66602V2.66602H12.5834V6.66602H14.0834ZM13.3334 1.91602H9.33337V3.41602H13.3334V1.91602ZM12.803 2.13569L9.46971 5.46902L10.5304 6.52968L13.8637 3.19635L12.803 2.13569Z" fill="#33363F"/>
<path d="M2.66663 2.66602V1.91602H1.91663V2.66602H2.66663ZM5.46963 6.52968C5.76252 6.82257 6.2374 6.82257 6.53029 6.52968C6.82318 6.23679 6.82318 5.76191 6.53029 5.46902L5.46963 6.52968ZM3.41663 6.66602V2.66602H1.91663V6.66602H3.41663ZM2.66663 3.41602H6.66663V1.91602H2.66663V3.41602ZM2.1363 3.19635L5.46963 6.52968L6.53029 5.46902L3.19696 2.13569L2.1363 3.19635Z" fill="#33363F"/>
</svg>
