<svg width="24" height="24" viewBox="0 0 24 24" fill="none" xmlns="http://www.w3.org/2000/svg">
<path fillRule="evenodd" clipRule="evenodd" d="M3.48874 1.58709C3.12263 1.22097 2.52903 1.22097 2.16292 1.58709C1.7968 1.9532 1.7968 2.5468 2.16292 2.91291L5.43067 6.18067C4.79338 6.66856 4.2247 7.18929 3.72657 7.70198C2.78683 8.6692 2.07249 9.63311 1.59287 10.3546C1.35248 10.7162 1.16953 11.0192 1.04534 11.2344C0.98321 11.3421 0.935678 11.4279 0.902916 11.4884C0.886532 11.5186 0.873832 11.5425 0.864838 11.5596L0.854125 11.5801L0.850855 11.5864L0.849742 11.5886L0.849317 11.5894C0.84914 11.5897 0.848978 11.5901 1.6875 12L0.849317 11.5894C0.711554 11.8588 0.717598 12.1778 0.866051 12.4418L0.867968 12.4452L0.87141 12.4512L0.882852 12.4712C0.892499 12.4879 0.906178 12.5114 0.923833 12.5413C0.959137 12.601 1.01038 12.686 1.07711 12.7929C1.2105 13.0064 1.40619 13.3076 1.66061 13.6673C2.16827 14.3849 2.91586 15.3441 3.87563 16.3066C5.77182 18.2082 8.6256 20.25 12.1875 20.25C14.3434 20.25 16.205 19.5026 17.7396 18.4896L21.0871 21.8371C21.4532 22.2032 22.0468 22.2032 22.4129 21.8371C22.779 21.471 22.779 20.8774 22.4129 20.5113L3.48874 1.58709ZM16.4034 17.1534L14.8194 15.5694C14.0793 16.092 13.1702 16.4 12.1875 16.4C9.70222 16.4 7.6875 14.4301 7.6875 12C7.6875 11.0037 8.02618 10.0847 8.59711 9.34711L6.7503 7.5003C6.13733 7.95352 5.58183 8.4543 5.08594 8.96469C4.24443 9.8308 3.59939 10.7002 3.16495 11.3537C3.0022 11.5986 2.86985 11.8118 2.76861 11.9815C2.87948 12.1543 3.02473 12.3728 3.20268 12.6244C3.66767 13.2817 4.34977 14.1559 5.21813 15.0267C6.97819 16.7918 9.37441 18.4167 12.1875 18.4167C13.7593 18.4167 15.1724 17.9089 16.4034 17.1534ZM9.93359 10.6836C9.69795 11.0685 9.5625 11.5188 9.5625 12C9.5625 13.4175 10.7378 14.5667 12.1875 14.5667C12.6586 14.5667 13.1007 14.4453 13.4829 14.2329L9.93359 10.6836ZM0.866051 12.4418L1.6825 12.0027C1.27544 12.2216 1.07129 12.3313 0.968918 12.3863C0.867855 12.4406 0.865987 12.4416 0.866051 12.4418Z" fill="#5B6178"/>
<path d="M11.7703 7.61866L16.658 12.5064C16.6775 12.3402 16.6875 12.1713 16.6875 12C16.6875 9.56995 14.6728 7.6 12.1875 7.6C12.0468 7.6 11.9077 7.60631 11.7703 7.61866Z" fill="#5B6178"/>
<path fillRule="evenodd" clipRule="evenodd" d="M20.8379 12.6508C20.4287 13.2743 19.8338 14.0932 19.0701 14.9184L20.3831 16.2315C21.2706 15.2849 21.953 14.3464 22.416 13.6409C22.6528 13.2801 22.8337 12.9779 22.9566 12.7634C23.0182 12.6561 23.0653 12.5707 23.0978 12.5106C23.114 12.4805 23.1266 12.4568 23.1355 12.4399L23.146 12.4197L23.1492 12.4135L23.1503 12.4114L23.1507 12.4106C23.2767 12.1642 23.283 11.875 23.1674 11.6238L22.3125 12C23.1674 11.6238 23.1673 11.6235 23.1671 11.6231L23.1667 11.6223L23.1657 11.62L23.1627 11.6136L23.1529 11.5928C23.1446 11.5755 23.1331 11.5514 23.1181 11.521C23.0883 11.4601 23.0449 11.3738 22.988 11.2657C22.8743 11.0495 22.7062 10.7454 22.4836 10.3825C22.0394 9.65872 21.372 8.69126 20.4781 7.72012C18.7013 5.7898 15.9368 3.75 12.1875 3.75C10.8684 3.75 9.65958 4.00261 8.56549 4.41385L10.0239 5.8723C10.705 5.68786 11.4267 5.58333 12.1875 5.58333C15.1882 5.58333 17.4862 7.2102 19.0844 8.94655C19.878 9.80874 20.4762 10.6746 20.8758 11.3258C21.0345 11.5844 21.1609 11.8075 21.2549 11.9811C21.1513 12.1574 21.0119 12.3857 20.8379 12.6508ZM23.1507 12.4106C23.1509 12.4102 23.151 12.4099 22.3125 12L23.1507 12.4106Z" fill="#5B6178"/>
</svg>
