<svg width="16" height="16" viewBox="0 0 16 16" fill="none" xmlns="http://www.w3.org/2000/svg">
<path fill-rule="evenodd" clip-rule="evenodd" d="M9.42277 2.22771L9.42407 2.24063L9.42643 2.26379C9.51175 3.04929 10.4314 3.43023 11.0472 2.93514L11.0652 2.92043L11.0753 2.91223C11.4713 2.59201 12.0448 2.62062 12.407 2.97865L12.4162 2.98781L13.0118 3.58345L13.021 3.59265C13.379 3.95487 13.4076 4.5283 13.0874 4.92435L13.0792 4.93441L13.0645 4.95246C12.5694 5.56822 12.9503 6.48789 13.7358 6.57322L13.759 6.57558L13.772 6.57689C14.2784 6.63052 14.6637 7.05621 14.6666 7.5655L14.6666 7.5785V8.42093L14.6666 8.43378C14.6637 8.94312 14.2784 9.36887 13.7719 9.42247L13.7591 9.42377L13.7362 9.42609C12.9506 9.51132 12.5696 10.4312 13.0648 11.047L13.0793 11.0647L13.0874 11.0746C13.4077 11.4707 13.3791 12.0442 13.021 12.4065L13.0119 12.4155L12.4162 13.0112L12.407 13.0204C12.0448 13.3784 11.4714 13.407 11.0753 13.0868L11.0653 13.0786L11.0472 13.0639C10.4315 12.5688 9.51178 12.9498 9.42646 13.7353L9.42409 13.7586L9.42276 13.7717C9.3691 14.2781 8.94345 14.6633 8.43422 14.6663L8.42107 14.6663H7.57881L7.5658 14.6663C7.05652 14.6634 6.63082 14.2781 6.57719 13.7716L6.57588 13.7587L6.57352 13.7355C6.48819 12.95 5.56853 12.5691 4.95278 13.0642L4.9347 13.0789L4.92461 13.0871C4.52857 13.4073 3.95515 13.3787 3.59293 13.0207L3.58372 13.0115L2.98809 12.4159L2.97891 12.4067C2.62089 12.0445 2.59229 11.4711 2.91249 11.075L2.92072 11.0649L2.93544 11.0469C3.43053 10.4311 3.04959 9.51145 2.2641 9.42612L2.24093 9.42377L2.22802 9.42246C1.72155 9.36884 1.33629 8.94313 1.33333 8.43384L1.33331 8.42086V7.57857L1.33333 7.56544C1.33633 7.0562 1.72154 6.63055 2.22795 6.57689L2.24102 6.57557L2.26444 6.57319C3.04984 6.4878 3.43073 5.56825 2.93575 4.95251L2.92083 4.93422L2.91247 4.92397C2.59234 4.52795 2.62094 3.95462 2.97888 3.59242L2.9882 3.58307L3.58375 2.98752L3.59296 2.97833C3.95518 2.62032 4.5286 2.59172 4.92464 2.91191L4.93478 2.92018L4.95271 2.93481C5.56849 3.43002 6.48831 3.04902 6.57357 2.26343L6.57589 2.24054L6.57718 2.22778C6.63078 1.72126 7.05654 1.33595 7.56588 1.33302L7.57871 1.33301H8.42116L8.43415 1.33302C8.94344 1.33599 9.36914 1.72125 9.42277 2.22771ZM7.99998 10.6663C9.47274 10.6663 10.6666 9.47243 10.6666 7.99967C10.6666 6.52692 9.47274 5.33301 7.99998 5.33301C6.52722 5.33301 5.33331 6.52692 5.33331 7.99967C5.33331 9.47243 6.52722 10.6663 7.99998 10.6663Z" fill="#2E2E2E"/>
</svg>
