<svg width="16" height="16" viewBox="0 0 16 16" fill="none" xmlns="http://www.w3.org/2000/svg">
<path fill-rule="evenodd" clip-rule="evenodd" d="M8 14.6668C11.6819 14.6668 14.6667 11.6821 14.6667 8.00016C14.6667 4.31826 11.6819 1.3335 8 1.3335C4.65798 1.3335 1.89032 3.79265 1.40784 7.00016H6.91912L5.2929 5.37394C4.90237 4.98341 4.90237 4.35025 5.2929 3.95972C5.68342 3.5692 6.31659 3.5692 6.70711 3.95972L10.0404 7.29306C10.228 7.48059 10.3333 7.73495 10.3333 8.00016C10.3333 8.26538 10.228 8.51973 10.0404 8.70727L6.70711 12.0406C6.31659 12.4311 5.68342 12.4311 5.2929 12.0406C4.90237 11.6501 4.90237 11.0169 5.2929 10.6264L6.91912 9.00016H1.40784C1.89032 12.2077 4.65798 14.6668 8 14.6668Z" fill="#8E8E8E"/>
</svg>
