<svg width="24" height="24" viewBox="0 0 24 24" fill="none" xmlns="http://www.w3.org/2000/svg">
<path fillRule="evenodd" clipRule="evenodd" d="M3.20268 12.6244C3.02473 12.3728 2.87947 12.1543 2.76861 11.9815C2.86985 11.8118 3.00219 11.5986 3.16495 11.3537C3.59938 10.7002 4.24443 9.8308 5.08594 8.96469C6.78327 7.21772 9.17896 5.58333 12.1875 5.58333C15.1882 5.58333 17.4862 7.2102 19.0844 8.94655C19.878 9.80874 20.4762 10.6746 20.8758 11.3258C21.0345 11.5844 21.1609 11.8075 21.2549 11.9811C21.1513 12.1574 21.0119 12.3857 20.8379 12.6508C20.4079 13.306 19.7729 14.1769 18.9524 15.0442C17.2914 16.8 14.9921 18.4167 12.1875 18.4167C9.37441 18.4167 6.97818 16.7918 5.21812 15.0267C4.34976 14.1559 3.66767 13.2817 3.20268 12.6244ZM23.1671 11.6231C23.1673 11.6235 23.1674 11.6238 22.3125 12L23.1507 12.4106L23.1503 12.4114L23.1492 12.4135L23.146 12.4197L23.1355 12.4399C23.1266 12.4568 23.114 12.4805 23.0977 12.5106C23.0653 12.5707 23.0182 12.6561 22.9566 12.7634C22.8337 12.9779 22.6528 13.2801 22.416 13.6409C21.9436 14.3607 21.2428 15.3231 20.3288 16.2891C18.5211 18.2 15.7579 20.25 12.1875 20.25C8.62559 20.25 5.77182 18.2082 3.87563 16.3066C2.91586 15.3441 2.16827 14.3849 1.6606 13.6673C1.40618 13.3076 1.21049 13.0064 1.0771 12.7929C1.01038 12.686 0.959133 12.601 0.923829 12.5413C0.906174 12.5114 0.892495 12.4879 0.882848 12.4712L0.871406 12.4512L0.867964 12.4452L0.866048 12.4418L1.6875 12C0.848975 11.5901 0.849137 11.5897 0.849313 11.5894L0.849739 11.5886L0.850851 11.5864L0.854121 11.5801L0.864834 11.5596C0.873829 11.5425 0.886529 11.5186 0.902913 11.4884C0.935674 11.4279 0.983206 11.3421 1.04534 11.2344C1.16953 11.0192 1.35248 10.7162 1.59287 10.3546C2.07249 9.63311 2.78682 8.6692 3.72656 7.70198C5.59173 5.78228 8.44604 3.75 12.1875 3.75C15.9368 3.75 18.7013 5.7898 20.4781 7.72012C21.372 8.69126 22.0394 9.65872 22.4836 10.3825C22.7062 10.7454 22.8743 11.0495 22.988 11.2657C23.0449 11.3738 23.0883 11.4601 23.1181 11.521C23.1331 11.5514 23.1446 11.5755 23.1529 11.5928L23.1627 11.6136L23.1657 11.62L23.1667 11.6223L23.1671 11.6231ZM0.866048 12.4418C0.717594 12.1778 0.711212 11.8595 0.848975 11.5901L1.6875 12C0.871748 12.4387 0.865914 12.4414 0.866044 12.4418L0.866048 12.4418ZM23.1507 12.4106C23.2767 12.1642 23.283 11.875 23.1674 11.6238L22.3125 12C23.151 12.4099 23.1509 12.4102 23.1507 12.4106ZM14.8125 12C14.8125 13.4175 13.6372 14.5667 12.1875 14.5667C10.7378 14.5667 9.5625 13.4175 9.5625 12C9.5625 10.5825 10.7378 9.43333 12.1875 9.43333C13.6372 9.43333 14.8125 10.5825 14.8125 12ZM16.6875 12C16.6875 14.4301 14.6728 16.4 12.1875 16.4C9.70222 16.4 7.6875 14.4301 7.6875 12C7.6875 9.56995 9.70222 7.6 12.1875 7.6C14.6728 7.6 16.6875 9.56995 16.6875 12Z" fill="#5B6178"/>
</svg>
