<svg width="14" height="15" viewBox="0 0 14 15" fill="none" xmlns="http://www.w3.org/2000/svg">
<path d="M6.99996 13.25C9.72554 13.25 12.0833 11.2018 12.0833 8.5C12.0833 6.99021 11.3789 5.53313 10.6191 4.38024C9.84514 3.20584 8.92808 2.21973 8.33028 1.62758C7.58919 0.893496 6.41073 0.893494 5.66964 1.62758C5.07184 2.21972 4.15478 3.20584 3.38081 4.38024C2.62103 5.53313 1.91663 6.99021 1.91663 8.5C1.91663 11.2018 4.27438 13.25 6.99996 13.25Z" fill="#0D4578" stroke="#0D4578" strokeWidth="2"/>
<path d="M6.99996 10.4997C6.69354 10.4997 6.39012 10.4393 6.10703 10.3221C5.82394 10.2048 5.56671 10.0329 5.35004 9.81626C5.13337 9.59959 4.9615 9.34236 4.84424 9.05927C4.72698 8.77618 4.66663 8.47276 4.66663 8.16634" stroke="white" strokeWidth="2" strokeLinecap="round"/>
</svg>
