<svg width="18" height="18" viewBox="0 0 18 18" fill="none" xmlns="http://www.w3.org/2000/svg">
<path d="M6.31672 5.36656C7.42229 3.15541 10.5777 3.15542 11.6833 5.36656L15.8292 13.6584C16.8265 15.6531 15.376 18 13.1459 18H4.8541C2.62396 18 1.17347 15.6531 2.17082 13.6584L6.31672 5.36656Z" fill="#2E2E2E"/>
<path d="M7.93102 9.5051C7.7162 8.78903 8.2524 8.06836 9 8.06836V8.06836C9.7476 8.06836 10.2838 8.78903 10.069 9.5051L9.48276 11.4592C9.4188 11.6724 9.22258 11.8184 9 11.8184V11.8184C8.77742 11.8184 8.5812 11.6724 8.51724 11.4592L7.93102 9.5051Z" fill="white" stroke="white"/>
<circle cx="9" cy="14.3252" r="0.75" fill="white" stroke="white"/>
</svg>
