<svg width="16" height="16" viewBox="0 0 16 16" fill="none" xmlns="http://www.w3.org/2000/svg">
<path d="M7.33333 6H6.5H6H4V7.33333H6H6.59979H7.33333H9.33333V6H7.33333Z" fill="#2E2E2E"/>
<path d="M6.66671 1.33398C3.72604 1.33398 1.33337 3.72665 1.33337 6.66732C1.33337 9.60798 3.72604 12.0007 6.66671 12.0007C7.85002 12.0004 8.99924 11.6043 9.93137 10.8753L12.862 13.806L13.8047 12.8633L10.874 9.93265C11.6034 9.00043 11.9998 7.85094 12 6.66732C12 3.72665 9.60737 1.33398 6.66671 1.33398ZM6.66671 10.6673C4.46071 10.6673 2.66671 8.87332 2.66671 6.66732C2.66671 4.46132 4.46071 2.66732 6.66671 2.66732C8.87271 2.66732 10.6667 4.46132 10.6667 6.66732C10.6667 8.87332 8.87271 10.6673 6.66671 10.6673Z" fill="#2E2E2E"/>
</svg>
