<svg width="1186" height="752" viewBox="0 0 1186 752" fill="none" xmlns="http://www.w3.org/2000/svg">
<path d="M2 195.636C54.8319 172.626 165.531 156.875 229.001 236.719C305.333 332.745 240.766 426.996 281.385 524.796C322.295 623.296 554.094 683.864 658.057 617.851C770.31 546.575 872.342 700.526 911 751" stroke="#7BDEFF" stroke-opacity="0.4" stroke-width="1.5"/>
<path d="M714.918 1C710.054 47.9958 705.397 119.62 752.949 168.842C813.091 231.096 895.776 168.853 932.933 239.031C974.945 318.374 988.211 354.706 1043.93 354.706C1120.21 354.706 1162.89 396.497 1185 438" stroke="#7BDEFF" stroke-opacity="0.4" stroke-width="1.5"/>
<path d="M1 421.864C35.1376 406.703 116.102 387.141 166.859 430.178C230.305 483.974 197.333 527.99 207.325 596.947C217.316 665.904 341.211 701.116 418.145 688.401C495.08 675.685 564.021 717.744 589 751" stroke="#7BDEFF" stroke-opacity="0.4" stroke-width="1.5"/>
</svg>
